<svg width="25" height="25" viewBox="0 0 25 25" fill="none" xmlns="http://www.w3.org/2000/svg">
<path d="M11.3541 2.18758C6.56245 2.70841 2.70828 6.56258 2.18745 11.2501C1.66661 16.1459 4.47911 20.5209 8.74995 22.1876C9.06245 22.2917 9.37495 22.0834 9.37495 21.6667V20.0001C9.37495 20.0001 8.95828 20.1042 8.43745 20.1042C6.97912 20.1042 6.35412 18.8542 6.24995 18.1251C6.14578 17.7084 5.93745 17.3959 5.62495 17.0834C5.31245 16.9792 5.20828 16.9792 5.20828 16.8751C5.20828 16.6667 5.52078 16.6667 5.62495 16.6667C6.24995 16.6667 6.77078 17.3959 6.97912 17.7084C7.49995 18.5417 8.12495 18.7501 8.43745 18.7501C8.85412 18.7501 9.16662 18.6459 9.37495 18.5417C9.47912 17.8126 9.79162 17.0834 10.4166 16.6667C8.02078 16.1459 6.24995 14.7917 6.24995 12.5001C6.24995 11.3542 6.77078 10.2084 7.49995 9.37508C7.39578 9.16674 7.29162 8.64591 7.29162 7.91674C7.29162 7.50008 7.29162 6.87508 7.60412 6.25008C7.60412 6.25008 9.06245 6.25008 10.5208 7.60424C11.0416 7.39591 11.7708 7.29174 12.4999 7.29174C13.2291 7.29174 13.9583 7.39591 14.5833 7.60424C15.9374 6.25008 17.4999 6.25008 17.4999 6.25008C17.7083 6.87508 17.7083 7.50008 17.7083 7.91674C17.7083 8.75008 17.6041 9.16674 17.4999 9.37508C18.2291 10.2084 18.75 11.2501 18.75 12.5001C18.75 14.7917 16.9791 16.1459 14.5833 16.6667C15.2083 17.1876 15.6249 18.1251 15.6249 19.0626V21.7709C15.6249 22.0834 15.9374 22.3959 16.3541 22.2917C20.2083 20.7292 22.9166 16.9792 22.9166 12.6042C22.9166 6.35424 17.6041 1.45841 11.3541 2.18758Z" fill="url(#paint0_linear_176_3)"/>
<defs>
<linearGradient id="paint0_linear_176_3" x1="12.5211" y1="2.11548" x2="12.5211" y2="22.3122" gradientUnits="userSpaceOnUse">
<stop stop-color="#007BC0"/>
<stop offset="1" stop-color="#60C3FB"/>
</linearGradient>
</defs>
</svg>
