<svg width="16" height="16" viewBox="0 0 16 16" fill="none" xmlns="http://www.w3.org/2000/svg">
<path d="M14.3691 0.1875H1.25586C0.5625 0.1875 0 0.75 0 1.44336V14.5566C0 15.25 0.5625 15.8125 1.25586 15.8125H14.3691C15.0625 15.8125 15.625 15.25 15.625 14.5566V1.44336C15.625 0.75 15.0625 0.1875 14.3691 0.1875ZM14.3691 14.5625C5.62305 14.5605 1.25 14.5586 1.25 14.5566C1.25195 5.81055 1.25391 1.4375 1.25586 1.4375C10.002 1.43945 14.375 1.44141 14.375 1.44336C14.373 10.1895 14.3711 14.5625 14.3691 14.5625ZM2.31641 6.04492H4.63477V13.502H2.31641V6.04492ZM3.47656 5.02539C4.2168 5.02539 4.82031 4.42383 4.82031 3.68164C4.82031 3.50518 4.78556 3.33044 4.71803 3.16741C4.6505 3.00438 4.55152 2.85624 4.42674 2.73147C4.30196 2.60669 4.15382 2.50771 3.99079 2.44018C3.82776 2.37265 3.65303 2.33789 3.47656 2.33789C3.3001 2.33789 3.12536 2.37265 2.96233 2.44018C2.7993 2.50771 2.65117 2.60669 2.52639 2.73147C2.40161 2.85624 2.30263 3.00438 2.2351 3.16741C2.16757 3.33044 2.13281 3.50518 2.13281 3.68164C2.13086 4.42383 2.73242 5.02539 3.47656 5.02539ZM8.4043 9.8125C8.4043 8.83984 8.58984 7.89844 9.79492 7.89844C10.9824 7.89844 11 9.00977 11 9.875V13.502H13.3164V9.41211C13.3164 7.4043 12.8828 5.85938 10.5371 5.85938C9.41016 5.85938 8.6543 6.47852 8.34375 7.06445H8.3125V6.04492H6.08789V13.502H8.4043V9.8125Z" fill="url(#paint0_linear_20_219)"/>
<defs>
<linearGradient id="paint0_linear_20_219" x1="7.8125" y1="0.1875" x2="7.8125" y2="15.8125" gradientUnits="userSpaceOnUse">
<stop stop-color="#60C3FB"/>
<stop offset="1" stop-color="#007BC0"/>
</linearGradient>
</defs>
</svg>
