<svg width="24" height="24" viewBox="0 0 24 24" fill="none" xmlns="http://www.w3.org/2000/svg">
<path d="M8.09495 15.165H12.965M5.17495 2.25C4.91409 2.25652 4.66611 2.36475 4.48395 2.55159C4.30179 2.73842 4.19987 2.98906 4.19995 3.25V20.8C4.19987 21.0609 4.30179 21.3116 4.48395 21.4984C4.66611 21.6852 4.91409 21.7935 5.17495 21.8H18.825C19.0902 21.8 19.3445 21.6946 19.5321 21.5071C19.7196 21.3196 19.825 21.0652 19.825 20.8V3.225C19.8184 2.96414 19.7102 2.71616 19.5234 2.534C19.3365 2.35184 19.0859 2.24992 18.825 2.25H17.825V6.66L15.895 4.705L13.955 6.66V2.25H5.17495ZM8.09495 12.25H16.405H8.09495ZM8.09495 18.09H14.44H8.09495Z" stroke="url(#paint0_linear_20_156)" stroke-linecap="round" stroke-linejoin="round"/>
<defs>
<linearGradient id="paint0_linear_20_156" x1="12.0125" y1="2.25" x2="12.0125" y2="21.8" gradientUnits="userSpaceOnUse">
<stop stop-color="#60C3FB"/>
<stop offset="1" stop-color="#007BC0"/>
</linearGradient>
</defs>
</svg>
