<svg width="57" height="14" viewBox="0 0 57 14" fill="none" xmlns="http://www.w3.org/2000/svg">
<g clip-path="url(#clip0_20_222)">
<path d="M17.4155 5.59148C18.0679 5.59148 18.5967 5.06348 18.5967 4.41226C18.5967 3.76093 18.0679 3.23304 17.4155 3.23304C16.7631 3.23304 16.2343 3.76093 16.2343 4.41226C16.2343 5.06348 16.7631 5.59148 17.4155 5.59148ZM56.3982 9.62048C56.2185 9.49437 56.0798 9.47348 55.9646 9.71837C53.9808 14.0068 50.6376 11.8668 50.9697 12.0552C51.7112 11.7166 53.6616 10.1555 53.3668 7.99993C53.1878 6.6826 52.0549 6.09826 50.8525 6.30748C48.7535 6.67271 47.9813 8.93226 48.3744 10.9327C48.4432 11.2763 48.5661 11.5596 48.6889 11.8371C46.317 13.7623 45.375 10.1138 45.2681 9.67782C45.2639 9.65448 47.0996 8.12737 47.6101 4.48837C48.1453 0.674486 46.9263 -0.0199584 45.6797 0.00170827C43.373 0.0418194 42.7497 4.85193 43.5871 8.86082C43.5169 8.87904 43.1905 9.05948 42.6661 9.07971C42.2887 7.89448 40.6761 6.8556 40.254 7.25593C39.1977 8.25737 40.5102 10.2153 41.4337 10.3688C40.8789 13.7789 37.4096 12.9344 38.0554 8.66204C39.1852 6.56815 40.0444 3.45471 39.8911 1.57515C39.8368 0.909708 39.3438 0.0181527 38.229 0.0623749C36.0847 0.147042 35.8516 4.95849 36.1029 8.37337C36.0905 8.28926 35.9711 8.78826 35.0924 9.03637C34.8846 7.88493 33.0269 6.72915 32.5896 7.28482C31.771 8.32482 33.1897 10.1792 33.8617 10.3085C33.3069 13.7185 29.8377 12.8739 30.4835 8.6016C31.6133 6.50782 32.4724 3.39437 32.3191 1.51482C32.2648 0.849264 31.7719 -0.0422917 30.657 0.00181938C28.5127 0.0865971 28.2796 4.89804 28.531 8.31293C28.5184 8.22748 28.3962 8.74293 27.4817 8.98693C27.4511 7.49304 25.5867 6.80804 25.1388 7.28471C24.3406 8.13437 25.3216 9.87771 26.2291 10.3085C25.6744 13.7185 22.2052 12.8739 22.851 8.6016C23.9807 6.50782 24.84 3.39437 24.6866 1.51482C24.6323 0.849264 24.1394 -0.0422917 23.0244 0.00181938C20.8803 0.0865971 20.7077 5.13993 20.9591 8.55471C20.2528 11.5748 17.8843 15.3464 18.192 7.79115C18.2224 7.26115 18.2556 7.05993 17.9908 6.86148C17.7925 6.70726 17.3414 6.78148 17.0948 6.7876C16.7951 6.7996 16.7199 6.9746 16.6537 7.23915C16.4994 7.92226 16.4717 8.58448 16.4496 9.48804C16.4351 9.91071 16.4012 10.1079 16.2381 10.6843C16.0752 11.2605 15.146 12.3137 14.6372 12.1376C13.9314 11.8954 14.1629 9.90671 14.2952 8.54037C14.4054 7.4606 14.0525 6.97571 13.1483 6.79937C12.6189 6.68926 12.2973 6.70615 11.746 6.53271C11.2247 6.36871 11.1068 5.38448 9.99482 5.71248C9.38663 5.89204 9.77762 7.17815 9.63144 8.13137C8.91282 12.8204 7.41757 12.9492 6.72388 10.6714C9.84809 3.0346 7.62765 0.0239305 6.32789 0.0239305C4.97414 0.0239305 3.42668 0.954597 4.08196 6.90926C3.76334 6.81648 3.66537 6.76648 3.31658 6.76648C1.34395 6.76648 0 8.35804 0 10.3214C0 12.2847 1.34406 13.8764 3.31669 13.8764C4.48118 13.8764 5.29877 13.3478 5.91798 12.5301C6.32199 13.1076 6.81395 13.8853 7.71359 13.8503C10.3952 13.746 11.175 8.25615 11.2671 7.94993C11.5537 7.99404 11.8249 8.07749 12.0897 8.1216C12.5308 8.18771 12.5628 8.36193 12.5528 8.80471C12.4359 12.5385 13.1263 13.8458 14.6922 13.8458C15.5647 13.8458 16.3423 12.9903 16.878 12.3785C17.2781 13.2027 17.9157 13.8206 18.771 13.8457C20.8436 13.8972 21.6372 10.6002 21.5648 11.034C21.508 11.3745 22.2372 13.8272 24.371 13.836C27.014 13.8471 27.5053 10.9463 27.5638 10.4604C27.5712 10.3637 27.5744 10.3737 27.5638 10.4604L27.5618 10.4898C28.4009 10.334 28.8339 9.88504 28.8339 9.88504C28.8339 9.88504 29.5076 13.8812 32.0034 13.8362C34.5951 13.7893 35.0838 11.167 35.148 10.6557C35.1564 10.5344 35.1614 10.5486 35.148 10.6557C35.1476 10.6607 35.1473 10.6657 35.147 10.6707C36.1437 10.3088 36.4059 9.9456 36.4059 9.9456C36.4059 9.9456 36.9413 13.8623 39.5754 13.8965C41.9226 13.9271 42.7925 11.5281 42.7976 10.524C43.1935 10.5283 43.9258 10.2896 43.9087 10.276C43.9087 10.276 44.7685 13.7005 47.1695 13.8764C48.2968 13.9589 49.1425 13.2433 49.6245 12.9168C50.7574 13.8325 54.5297 15.002 56.9117 10.9715C57.2479 10.393 56.5251 9.70971 56.3982 9.62048ZM3.2215 12.5468C2.07059 12.5468 1.3326 11.4847 1.3326 10.3395C1.3326 9.19437 2.01003 8.13226 3.16094 8.13226C3.67884 8.13226 3.96696 8.18915 4.3703 8.53926C4.44344 8.82693 4.65073 9.49048 4.7516 9.79182C4.88675 10.195 5.04751 10.5383 5.2096 10.9118C4.97804 11.8699 4.21889 12.5468 3.2215 12.5468ZM6.02608 8.57293C5.97821 8.49682 5.98823 8.5436 5.93468 8.47171C5.72371 7.89893 5.31714 6.62048 5.27005 5.16837C5.21684 3.52571 5.49115 1.60026 6.29984 1.60026C6.84779 1.60026 7.43015 5.50248 6.02597 8.57293H6.02608ZM22.2311 6.86137C22.1013 5.8866 22.0945 1.54104 23.1398 1.66071C23.7169 1.89404 22.7738 5.9946 22.2311 6.86137ZM29.8637 6.86137C29.7338 5.8866 29.7271 1.54104 30.7723 1.66071C31.3494 1.89404 30.4064 5.9946 29.8637 6.86137ZM37.4356 6.92193C37.3057 5.94704 37.299 1.60149 38.3442 1.72115C38.9213 1.95449 37.9783 6.05515 37.4356 6.92193ZM45.795 1.40637C46.7507 1.30749 46.7113 5.4726 44.7931 8.10215C44.5457 7.15171 44.1664 1.73271 45.795 1.40626V1.40637ZM49.8118 10.3688C49.5048 8.82137 50.2979 7.80504 51.1155 7.6936C51.4013 7.64804 51.8154 7.83282 51.8981 8.17826C52.0339 8.82926 51.8783 9.79493 50.0485 11.0202C50.0511 11.0306 49.8802 10.7135 49.8119 10.3688H49.8118Z" fill="url(#paint0_linear_20_222)"/>
</g>
<defs>
<linearGradient id="paint0_linear_20_222" x1="28.5" y1="0.000244141" x2="28.5" y2="13.8968" gradientUnits="userSpaceOnUse">
<stop stop-color="#60C3FB"/>
<stop offset="1" stop-color="#007BC0"/>
</linearGradient>
<clipPath id="clip0_20_222">
<rect width="57" height="14" fill="white"/>
</clipPath>
</defs>
</svg>
