<svg width="154" height="105" viewBox="0 0 154 105" fill="none" xmlns="http://www.w3.org/2000/svg">
<path d="M14.4 45.32C10.6027 45.32 7.68 43.4 5.632 39.56C3.584 35.6773 2.56 30.152 2.56 22.984C2.56 15.7733 3.584 10.2267 5.632 6.344C7.68 2.46133 10.6027 0.519997 14.4 0.519997C16.96 0.519997 19.136 1.288 20.928 2.824C21.0987 2.952 21.184 3.12267 21.184 3.336C21.184 3.80533 20.9493 4.04 20.48 4.04C20.3093 4.04 20.16 3.976 20.032 3.848C18.4533 2.52533 16.576 1.864 14.4 1.864C11.072 1.864 8.49067 3.69867 6.656 7.368C4.864 11.0373 3.968 16.2427 3.968 22.984C3.968 29.6827 4.864 34.8667 6.656 38.536C8.49067 42.1627 11.0933 43.976 14.464 43.976C15.5733 43.976 16.6613 43.784 17.728 43.4C18.8373 43.016 19.776 42.3547 20.544 41.416V27.208H13.632C13.2053 27.208 12.992 26.9733 12.992 26.504C12.992 26.0773 13.2053 25.864 13.632 25.864H21.248C21.6747 25.864 21.888 26.0773 21.888 26.504V41.608C21.888 41.8213 21.824 41.992 21.696 42.12C19.8187 44.2533 17.3867 45.32 14.4 45.32ZM26.1015 45C25.8455 45 25.6535 44.9147 25.5255 44.744C25.4402 44.5307 25.4188 44.3387 25.4615 44.168L36.9815 1.352C37.0668 1.01066 37.2802 0.839996 37.6215 0.839996C38.0055 0.839996 38.2402 1.01066 38.3255 1.352L49.9095 44.168C49.9948 44.3387 49.9735 44.5307 49.8455 44.744C49.7175 44.9147 49.5255 45 49.2695 45C48.9282 45 48.7148 44.8293 48.6295 44.488L44.0855 27.784H31.2215L26.7415 44.488C26.6562 44.8293 26.4428 45 26.1015 45ZM31.6055 26.44H43.7655L37.6855 3.912L31.6055 26.44ZM55.4175 45C54.9908 45 54.7775 44.7867 54.7775 44.36V1.48C54.7775 1.05333 54.9908 0.839996 55.4175 0.839996H61.6255C64.6548 0.839996 66.9802 2.01333 68.6015 4.36C70.2228 6.664 71.0335 10.0133 71.0335 14.408C71.0335 18.12 70.3082 20.808 68.8575 22.472C69.7535 23.7093 70.4575 25.16 70.9695 26.824C71.4815 28.4453 71.7375 30.2373 71.7375 32.2C71.7375 36.1253 70.7562 39.24 68.7935 41.544C66.8735 43.848 64.2282 45 60.8575 45H55.4175ZM61.6255 2.184H56.1215V43.656H60.8575C63.8015 43.656 66.1055 42.6533 67.7695 40.648C69.4762 38.6 70.3295 35.784 70.3295 32.2C70.3295 30.4507 70.0948 28.8293 69.6255 27.336C69.1988 25.8427 68.5802 24.5413 67.7695 23.432C66.8308 24.072 65.6788 24.392 64.3135 24.392C62.6068 24.392 61.1562 23.9653 59.9615 23.112C58.8095 22.2587 58.2335 21.32 58.2335 20.296C58.2335 19.1013 59.1935 18.504 61.1135 18.504C62.4788 18.504 63.7375 18.76 64.8895 19.272C66.0415 19.784 67.0655 20.5093 67.9615 21.448C69.0708 19.9973 69.6255 17.6507 69.6255 14.408C69.6255 10.3973 68.9428 7.368 67.5775 5.32C66.2548 3.22933 64.2708 2.184 61.6255 2.184ZM59.5775 20.552C59.5775 21.064 60.0468 21.6187 60.9855 22.216C61.9242 22.8133 63.0335 23.112 64.3135 23.112C65.3375 23.112 66.2122 22.8773 66.9375 22.408C65.3162 20.6587 63.3962 19.784 61.1775 19.784C60.1108 19.784 59.5775 20.04 59.5775 20.552ZM79.2895 45C78.8628 45 78.6495 44.7867 78.6495 44.36V23.56C77.5828 23.2613 76.6868 22.856 75.9615 22.344C75.2788 21.7893 74.9375 21.1067 74.9375 20.296C74.9375 19.656 75.3002 19.144 76.0255 18.76C76.7935 18.376 77.6682 18.12 78.6495 17.992V1.48C78.6495 1.05333 78.8628 0.839996 79.2895 0.839996H86.7775C89.5508 0.839996 91.6628 1.88533 93.1135 3.976C94.6068 6.06667 95.3535 8.75467 95.3535 12.04C95.3535 14.2587 94.8842 16.2427 93.9455 17.992C93.0495 19.7413 91.7908 21.1493 90.1695 22.216C92.0468 24.3067 93.4335 27.1653 94.3295 30.792L97.6575 44.232C97.7428 44.5307 97.6788 44.744 97.4655 44.872C97.2522 44.9573 97.0815 45 96.9535 45C96.6122 45 96.3988 44.8293 96.3135 44.488L92.9855 31.048C92.1322 27.5067 90.8095 24.776 89.0175 22.856C87.3108 23.7093 85.4335 24.136 83.3855 24.136C82.1908 24.136 81.0602 24.0507 79.9935 23.88V44.36C79.9935 44.7867 79.7588 45 79.2895 45ZM86.7775 2.184H79.9935V17.928C83.7908 17.928 86.8842 19.0373 89.2735 21.256C90.6815 20.36 91.8122 19.144 92.6655 17.608C93.5188 16.0293 93.9455 14.1733 93.9455 12.04C93.9455 9.26666 93.3695 6.94133 92.2175 5.064C91.0655 3.144 89.2522 2.184 86.7775 2.184ZM83.3855 22.92C85.0495 22.92 86.6068 22.6 88.0575 21.96C85.9242 20.168 83.2362 19.272 79.9935 19.272V22.536C81.1882 22.792 82.3188 22.92 83.3855 22.92ZM76.2815 20.36C76.2815 20.744 76.4948 21.0853 76.9215 21.384C77.3908 21.6827 77.9668 21.9387 78.6495 22.152V19.336C78.0095 19.3787 77.4548 19.4853 76.9855 19.656C76.5162 19.8267 76.2815 20.0613 76.2815 20.36ZM103.73 45C103.303 45 103.09 44.7867 103.09 44.36V1.48C103.09 1.05333 103.303 0.839996 103.73 0.839996C104.199 0.839996 104.434 1.05333 104.434 1.48V44.36C104.434 44.7867 104.199 45 103.73 45ZM112.73 45C112.303 45 112.09 44.7867 112.09 44.36V1.48C112.09 1.05333 112.303 0.839996 112.73 0.839996H124.826C125.253 0.839996 125.466 1.05333 125.466 1.48C125.466 1.94933 125.253 2.184 124.826 2.184H113.434V20.552H124.186C124.613 20.552 124.826 20.7653 124.826 21.192C124.826 21.6613 124.613 21.896 124.186 21.896H113.434V43.656H124.826C125.253 43.656 125.466 43.8693 125.466 44.296C125.466 44.7653 125.253 45 124.826 45H112.73ZM132.48 45C132.053 45 131.84 44.7867 131.84 44.36V1.48C131.84 1.05333 132.053 0.839996 132.48 0.839996C132.949 0.839996 133.184 1.05333 133.184 1.48V43.656H147.648C148.075 43.656 148.288 43.8693 148.288 44.296C148.288 44.7653 148.075 45 147.648 45H132.48ZM4.352 105C3.92533 105 3.712 104.787 3.712 104.36V83.56C2.64533 83.2613 1.74933 82.856 1.024 82.344C0.341333 81.7893 0 81.1067 0 80.296C0 79.656 0.362667 79.144 1.088 78.76C1.856 78.376 2.73067 78.12 3.712 77.992V61.48C3.712 61.0533 3.92533 60.84 4.352 60.84H11.84C14.6133 60.84 16.7253 61.8853 18.176 63.976C19.6693 66.0667 20.416 68.7547 20.416 72.04C20.416 74.2587 19.9467 76.2427 19.008 77.992C18.112 79.7413 16.8533 81.1493 15.232 82.216C17.1093 84.3067 18.496 87.1653 19.392 90.792L22.72 104.232C22.8053 104.531 22.7413 104.744 22.528 104.872C22.3147 104.957 22.144 105 22.016 105C21.6747 105 21.4613 104.829 21.376 104.488L18.048 91.048C17.1947 87.5067 15.872 84.776 14.08 82.856C12.3733 83.7093 10.496 84.136 8.448 84.136C7.25333 84.136 6.12267 84.0507 5.056 83.88V104.36C5.056 104.787 4.82133 105 4.352 105ZM11.84 62.184H5.056V77.928C8.85333 77.928 11.9467 79.0373 14.336 81.256C15.744 80.36 16.8747 79.144 17.728 77.608C18.5813 76.0293 19.008 74.1733 19.008 72.04C19.008 69.2667 18.432 66.9413 17.28 65.064C16.128 63.144 14.3147 62.184 11.84 62.184ZM8.448 82.92C10.112 82.92 11.6693 82.6 13.12 81.96C10.9867 80.168 8.29867 79.272 5.056 79.272V82.536C6.25067 82.792 7.38133 82.92 8.448 82.92ZM1.344 80.36C1.344 80.744 1.55733 81.0853 1.984 81.384C2.45333 81.6827 3.02933 81.9387 3.712 82.152V79.336C3.072 79.3787 2.51733 79.4853 2.048 79.656C1.57867 79.8267 1.344 80.0613 1.344 80.36ZM28.7925 105C28.3658 105 28.1525 104.787 28.1525 104.36V61.48C28.1525 61.0533 28.3658 60.84 28.7925 60.84H40.8885C41.3152 60.84 41.5285 61.0533 41.5285 61.48C41.5285 61.9493 41.3152 62.184 40.8885 62.184H29.4965V80.552H40.2485C40.6752 80.552 40.8885 80.7653 40.8885 81.192C40.8885 81.6613 40.6752 81.896 40.2485 81.896H29.4965V103.656H40.8885C41.3152 103.656 41.5285 103.869 41.5285 104.296C41.5285 104.765 41.3152 105 40.8885 105H28.7925ZM45.6625 105C45.2358 105 45.0225 104.808 45.0225 104.424C45.0225 104.253 45.0652 104.04 45.1505 103.784L60.6385 62.184H46.3025C45.8758 62.184 45.6625 61.9493 45.6625 61.48C45.6625 61.0533 45.8758 60.84 46.3025 60.84H61.5985C62.0252 60.84 62.2385 61.0107 62.2385 61.352C62.2385 61.48 62.1958 61.672 62.1105 61.928L46.5585 103.656H62.2385C62.6652 103.656 62.8785 103.869 62.8785 104.296C62.8785 104.765 62.6652 105 62.2385 105H45.6625ZM68.2925 105C67.8658 105 67.6525 104.787 67.6525 104.36V61.48C67.6525 61.0533 67.8658 60.84 68.2925 60.84H80.3885C80.8152 60.84 81.0285 61.0533 81.0285 61.48C81.0285 61.9493 80.8152 62.184 80.3885 62.184H68.9965V80.552H79.7485C80.1752 80.552 80.3885 80.7653 80.3885 81.192C80.3885 81.6613 80.1752 81.896 79.7485 81.896H68.9965V103.656H80.3885C80.8152 103.656 81.0285 103.869 81.0285 104.296C81.0285 104.765 80.8152 105 80.3885 105H68.2925ZM88.0425 105C87.6158 105 87.4025 104.787 87.4025 104.36V61.48C87.4025 61.0533 87.6158 60.84 88.0425 60.84C88.3412 60.84 88.5545 60.968 88.6825 61.224L105.387 101.096V61.48C105.387 61.0533 105.6 60.84 106.027 60.84C106.496 60.84 106.731 61.0533 106.731 61.48V104.36C106.731 104.787 106.496 105 106.027 105C105.728 105 105.536 104.872 105.451 104.616L88.7465 64.744V104.36C88.7465 104.787 88.5118 105 88.0425 105ZM115.043 105C114.616 105 114.403 104.787 114.403 104.36V61.48C114.403 61.0533 114.616 60.84 115.043 60.84H122.275C126.029 60.84 128.803 62.76 130.595 66.6C132.429 70.3973 133.347 75.8373 133.347 82.92C133.347 90.0027 132.429 95.464 130.595 99.304C128.803 103.101 126.029 105 122.275 105H115.043ZM122.275 62.184H115.747V103.656H122.275C125.56 103.656 127.992 101.843 129.571 98.216C131.149 94.5893 131.939 89.4907 131.939 82.92C131.939 76.3067 131.149 71.208 129.571 67.624C127.992 63.9973 125.56 62.184 122.275 62.184ZM140.418 105C139.991 105 139.778 104.787 139.778 104.36V61.48C139.778 61.0533 139.991 60.84 140.418 60.84H152.514C152.94 60.84 153.154 61.0533 153.154 61.48C153.154 61.9493 152.94 62.184 152.514 62.184H141.122V80.552H151.874C152.3 80.552 152.514 80.7653 152.514 81.192C152.514 81.6613 152.3 81.896 151.874 81.896H141.122V103.656H152.514C152.94 103.656 153.154 103.869 153.154 104.296C153.154 104.765 152.94 105 152.514 105H140.418Z" fill="#141414"/>
</svg>
